<?xml version="1.0" encoding="iso-8859-1"?>
<!-- Uploaded to: SVG Repo, www.svgrepo.com, Generator: SVG Repo Mixer Tools -->
<svg version="1.1" id="Layer_1" xmlns="http://www.w3.org/2000/svg" xmlns:xlink="http://www.w3.org/1999/xlink" 
	 viewBox="0 0 512 512" xml:space="preserve">
<path style="fill:#908E94;" d="M386.923,488.549c0.781,5.922-1.03,11.893-4.968,16.385S372.333,512,366.36,512H76.453
	c-5.973,0-11.657-2.575-15.595-7.067c-3.938-4.491-5.749-10.462-4.968-16.385l50.33-381.855c0.628-4.767,2.892-9.166,6.406-12.447
	l95.152-88.872c7.673-7.166,19.586-7.166,27.258,0l95.152,88.872c3.514,3.281,5.777,7.681,6.406,12.447L386.923,488.549z"/>
<path style="fill:#706E73;" d="M386.923,488.549l-50.33-381.855c-0.628-4.765-2.892-9.166-6.406-12.448L235.036,5.375
	C231.199,1.792,226.303,0,221.406,0v511.999H366.36c5.973,0,11.657-2.575,15.595-7.067
	C385.893,500.442,387.703,494.471,386.923,488.549z"/>
<rect x="195.631" y="104.907" style="fill:#F8980E;" width="51.56" height="287.407"/>
<g>
	<rect x="216.232" y="104.907" style="fill:#3E3D41;" width="10.338" height="287.407"/>
	<path style="fill:#3E3D41;" d="M221.406,392.312c-4.345,0-8.691-1.658-12.005-4.974c-6.631-6.63-6.631-17.381,0-24.012
		l217.903-217.903c6.63-6.63,17.381-6.63,24.012,0c6.631,6.63,6.631,17.381,0,24.012L233.412,387.339
		C230.097,390.653,225.751,392.312,221.406,392.312z"/>
</g>
<path style="fill:#F8980E;" d="M407.782,234.053c-4.345,0-8.691-1.658-12.005-4.974l-28.117-28.117
	c-6.631-6.63-6.631-17.381,0-24.012c6.63-6.63,17.381-6.63,24.012,0l28.117,28.117c6.631,6.63,6.631,17.381,0,24.012
	C416.473,232.395,412.127,234.053,407.782,234.053z"/>
<g>
	<path style="fill:#A52000;" d="M374.172,391.809H68.64l-12.751,96.74c-0.78,5.922,1.03,11.893,4.968,16.385S70.479,512,76.452,512
		h289.907c5.973,0,11.657-2.575,15.595-7.067c3.938-4.491,5.749-10.462,4.968-16.385L374.172,391.809z"/>
	<path style="fill:#A52000;" d="M336.275,104.903c-0.906-4.07-3.02-7.79-6.087-10.656L235.036,5.375
		c-7.673-7.166-19.585-7.166-27.258,0l-95.153,88.872c-3.069,2.866-5.183,6.584-6.087,10.656H336.275z"/>
</g>
<g>
	<path style="fill:#941D00;" d="M220.594,104.903h115.68c-0.906-4.07-3.02-7.79-6.087-10.656L235.036,5.375
		c-4.049-3.782-9.277-5.546-14.44-5.338v104.866H220.594z"/>
	<path style="fill:#941D00;" d="M386.923,488.549l-12.751-96.74H220.594V512h145.765c5.973,0,11.657-2.575,15.595-7.067
		C385.893,500.442,387.703,494.471,386.923,488.549z"/>
</g>
<polygon style="opacity:0.2;enable-background:new    ;" points="339.224,126.655 103.589,126.655 106.537,104.903 336.275,104.903 
	"/>
<rect x="55.714" y="391.805" style="fill:#E25F3F;" width="331.394" height="31.728"/>
<polygon style="fill:#941D00;" points="378.354,423.539 64.458,423.539 62.259,440.518 380.553,440.518 "/>
</svg>